<svg xmlns="http://www.w3.org/2000/svg" 
    xmlns:xlink="http://www.w3.org/1999/xlink" version="1.1" x="0px" y="0px" viewBox="0 0 100 125" style="enable-background:new 0 0 100 100;" xml:space="preserve">
    <path style="fill:#FFFFFF;" d="M78.9,36.9L78.9,36.9C77.9,21.3,65,9.1,49.3,9C33.7,9.1,20.8,21.3,19.8,36.9h-0.1C13.9,36.8,9.1,41.6,9,47.4  c0,0.1,0,0.1,0,0.2v10.8C9,64.3,13.7,69.1,19.5,69.2c0.1,0,0.1,0,0.2,0c5.9,0,10.7-4.8,10.8-10.8V47.7c0-3.9-2-7.5-5.4-9.4  c0-13.4,10.8-24.2,24.2-24.2s24.2,10.8,24.2,24.2c-3.4,1.9-5.4,5.5-5.4,9.4v10.8c-0.1,4,2.2,7.7,5.8,9.6c-2.7,3.3-7.8,8.3-14.5,9.8  c-2.1-4.6-7.6-6.5-12.1-4.4s-6.5,7.6-4.4,12.1c2.1,4.6,7.6,6.5,12.1,4.4c2.7-1.3,4.7-3.8,5.1-6.8c10.5-2,17.3-10.4,19.9-14  c5.4-0.6,9.5-5.2,9.6-10.7V47.7c0.1-5.9-4.6-10.7-10.5-10.8C79.1,36.9,79,36.9,78.9,36.9z M25.1,58.4c0,3.4-2,5.4-5.4,5.4  c-3.4,0-5.4-2-5.4-5.4V47.7c0-3.4,2-5.4,5.4-5.4s5.4,2,5.4,5.4C25.1,47.7,25.1,58.4,25.1,58.4z M51.2,86.2c-2.5,0-4.6-2-4.6-4.6  s2-4.6,4.6-4.6s4.6,2,4.6,4.6l0,0C55.8,84.2,53.7,86.2,51.2,86.2z M84.3,58.4c0,3.4-2,5.4-5.4,5.4s-5.4-2-5.4-5.4V47.7  c0-3.4,2-5.4,5.4-5.4s5.4,2,5.4,5.4V58.4z"/>
</svg>