<svg xmlns="http://www.w3.org/2000/svg" 
    xmlns:xlink="http://www.w3.org/1999/xlink" version="1.1" x="0px" y="0px" viewBox="0 0 100 100" style="enable-background:new 0 0 100 100;" xml:space="preserve">
    <path style="fill:#FFFFFF;" d="M40.9,59.6V38.4c0-1.8,2.1-2.9,3.6-1.8l14.3,10.6c1.2,0.9,1.2,2.7,0,3.6L44.4,61.3C42.9,62.4,40.9,61.4,40.9,59.6z M62.4,72  H30.6C22.5,72,16,65.4,16,57.4V40.6C16,32.6,22.5,26,30.6,26h36.8C75.4,26,82,32.6,82,40.6v10.6c1.4,0.2,2.7,0.6,4,1.1V40.6  C86,30.3,77.6,22,67.4,22H30.6C20.3,22,12,30.3,12,40.6v16.8C12,67.6,20.3,76,30.6,76h33.1C63.1,74.7,62.7,73.4,62.4,72z M19,20.7  c0.1,0,0.3,0,0.4-0.1c1.4-0.7,2.9-1.2,4.5-1.6c0.5-0.1,0.9-0.7,0.8-1.2c-0.1-0.5-0.7-0.9-1.2-0.8c-1.7,0.4-3.3,1-4.9,1.7  c-0.5,0.2-0.7,0.8-0.5,1.3C18.3,20.5,18.7,20.7,19,20.7z M6.5,55.5c0.6,0,1-0.4,1-1v-5c0-0.6-0.4-1-1-1s-1,0.4-1,1v5  C5.5,55,5.9,55.5,6.5,55.5z M58.4,18.5h5c0.6,0,1-0.4,1-1s-0.4-1-1-1h-5c-0.6,0-1,0.4-1,1S57.8,18.5,58.4,18.5z M6.8,35.7  c0.1,0,0.2,0,0.2,0c0.5,0,0.9-0.3,1-0.8c0.4-1.5,0.9-3,1.6-4.4c0.2-0.5,0-1.1-0.5-1.3c-0.5-0.2-1.1,0-1.3,0.5  c-0.8,1.6-1.3,3.2-1.7,4.9C5.9,35,6.3,35.5,6.8,35.7z M6.5,45.5c0.6,0,1-0.4,1-1v-5c0-0.6-0.4-1-1-1s-1,0.5-1,1v4.9  C5.5,45.1,5.9,45.5,6.5,45.5z M77.6,20.2c1.4,0.6,2.8,1.4,4.1,2.3c0.2,0.1,0.4,0.2,0.6,0.2c0.3,0,0.6-0.1,0.8-0.4  c0.3-0.4,0.2-1.1-0.2-1.4c-1.4-1-2.9-1.9-4.5-2.5c-0.5-0.2-1.1,0-1.3,0.5C76.8,19.4,77,20,77.6,20.2z M91.5,52.4c-0.6,0-1,0.4-1,1  v1.5c0.7,0.6,1.4,1.2,2,1.9v-3.4C92.5,52.8,92,52.4,91.5,52.4z M68.3,18.5h1c1.3,0,2.5,0.1,3.7,0.3c0.1,0,0.1,0,0.2,0  c0.5,0,0.9-0.3,1-0.8c0.1-0.5-0.3-1.1-0.8-1.2c-1.3-0.2-2.7-0.4-4.1-0.4h-1c-0.6,0-1,0.4-1,1S67.7,18.5,68.3,18.5z M8.3,64  c-0.4-1.5-0.7-3.1-0.8-4.7c0-0.6-0.5-1-1-0.9c-0.6,0-1,0.5-0.9,1c0.1,1.7,0.4,3.4,0.8,5.1c0.1,0.4,0.5,0.7,1,0.7c0.1,0,0.2,0,0.3,0  C8.1,65.1,8.4,64.6,8.3,64z M89.7,33.9c0.4,1.5,0.7,3.1,0.8,4.7c0,0.5,0.5,0.9,1,0.9c0,0,0,0,0.1,0c0.6,0,1-0.5,0.9-1.1  c-0.1-1.7-0.4-3.4-0.8-5.1c-0.2-0.5-0.7-0.8-1.2-0.7C89.8,32.8,89.5,33.4,89.7,33.9z M87.9,29.5c0.2,0.3,0.5,0.5,0.9,0.5  c0.2,0,0.3,0,0.5-0.1c0.5-0.3,0.7-0.9,0.4-1.4c-0.8-1.5-1.8-2.9-3-4.2c-0.4-0.4-1-0.5-1.4-0.1c-0.4,0.4-0.5,1-0.1,1.4  C86.2,26.9,87.1,28.2,87.9,29.5z M91.5,42.5c-0.6,0-1,0.4-1,1v5c0,0.6,0.4,1,1,1s1-0.4,1-1v-5C92.5,42.9,92,42.5,91.5,42.5z   M54.4,17.5c0-0.6-0.4-1-1-1h-5c-0.6,0-1,0.4-1,1s0.4,1,1,1h5C54,18.5,54.4,18,54.4,17.5z M49.5,79.5h-5c-0.6,0-1,0.4-1,1s0.4,1,1,1  h5c0.6,0,1-0.4,1-1S50,79.5,49.5,79.5z M59.4,79.5h-5c-0.6,0-1,0.4-1,1s0.4,1,1,1h5c0.6,0,1-0.4,1-1S59.9,79.5,59.4,79.5z   M65.9,79.5h-1.6c-0.6,0-1,0.4-1,1s0.4,1,1,1h3.5C67.2,80.9,66.5,80.2,65.9,79.5z M44.5,17.5c0-0.6-0.4-1-1-1h-5c-0.6,0-1,0.4-1,1  s0.4,1,1,1h5C44,18.5,44.5,18,44.5,17.5z M34.6,17.5c0-0.6-0.4-1-1-1h-5c-0.6,0-1,0.4-1,1s0.5,1,1,1h4.9  C34.1,18.5,34.6,18,34.6,17.5z M15.6,21.7c-0.3-0.4-1-0.5-1.4-0.2c-1.3,1.1-2.6,2.3-3.7,3.7c-0.3,0.4-0.3,1.1,0.2,1.4  c0.2,0.1,0.4,0.2,0.6,0.2c0.3,0,0.6-0.1,0.8-0.4c1-1.2,2.1-2.4,3.3-3.3C15.9,22.8,16,22.2,15.6,21.7z M20.4,77.8  c-1.4-0.6-2.8-1.4-4.1-2.3c-0.4-0.3-1.1-0.2-1.4,0.2c-0.3,0.4-0.2,1.1,0.2,1.4c1.4,1,2.9,1.9,4.5,2.6c0.1,0.1,0.3,0.1,0.4,0.1  c0.4,0,0.8-0.2,0.9-0.6C21.1,78.6,20.9,78,20.4,77.8z M39.6,79.5h-5c-0.6,0-1,0.4-1,1s0.4,1,1,1h5c0.6,0,1-0.4,1-1  S40.1,79.5,39.6,79.5z M10,68.4c-0.3-0.5-0.9-0.7-1.4-0.4c-0.5,0.3-0.7,0.9-0.4,1.4c0.8,1.5,1.8,2.9,3,4.2c0.2,0.2,0.5,0.3,0.8,0.3  c0.2,0,0.5-0.1,0.7-0.2c0.4-0.4,0.5-1,0.1-1.4C11.7,71.1,10.8,69.8,10,68.4z M29.6,79.5h-1c-1.3,0-2.5-0.1-3.8-0.3  c-0.5-0.1-1.1,0.3-1.2,0.8s0.3,1.1,0.8,1.2c1.4,0.2,2.7,0.4,4.1,0.4h1c0.6,0,1-0.4,1-1S30.2,79.5,29.6,79.5z M90.1,79.1  c-5.9,5.9-15.4,5.9-21.2,0c-5.9-5.9-5.9-15.4,0-21.2c5.9-5.9,15.4-5.9,21.2,0C96,63.8,96,73.3,90.1,79.1z M88.5,68.4  c0-0.3-0.2-0.7-0.4-1c0,0,0,0,0,0l-5-5c-0.6-0.6-1.5-0.6-2.1,0c-0.3,0.3-0.4,0.7-0.4,1.1s0.1,0.8,0.4,1.1l2.4,2.4H72  c-0.8,0-1.5,0.7-1.5,1.5S71.2,70,72,70h11.4L81,72.4c-0.6,0.6-0.6,1.5,0,2.1c0.3,0.3,0.7,0.4,1.1,0.4s0.8-0.1,1.1-0.4l5-5  c0,0,0.1-0.1,0.1-0.1c0.2-0.2,0.3-0.5,0.4-0.8C88.5,68.6,88.5,68.5,88.5,68.4z"/>
</svg>