<svg xmlns="http://www.w3.org/2000/svg" data-name="Layer 1" viewBox="0 0 96 120" x="0px" y="0px">
    <title>Artboard 66</title>
    <path style="fill:#FFFFFF;" d="M55,64.13a5,5,0,1,1,5-5A5,5,0,0,1,55,64.13Zm0-5.94a1,1,0,1,0,1,1A1,1,0,0,0,55,58.19Z"/>
    <path style="fill:#FFFFFF;" d="M38,56a5,5,0,1,1,5-5A5,5,0,0,1,38,56ZM38,50a1,1,0,1,0,1,1A1,1,0,0,0,38,50Z"/>
    <path style="fill:#FFFFFF;" d="M55,47.81a5,5,0,1,1,5-5A5,5,0,0,1,55,47.81Zm0-5.94a1,1,0,1,0,1,1A1,1,0,0,0,55,41.87Z"/>
    <path style="fill:#FFFFFF;" d="M40.94,51.83A2,2,0,0,1,40.12,48l11.71-5.24a2,2,0,0,1,1.63,3.66L41.75,51.65A2,2,0,0,1,40.94,51.83Z"/>
    <path style="fill:#FFFFFF;" d="M52.18,60.33a2.11,2.11,0,0,1-.74-.14L39,55.2a2,2,0,0,1,1.49-3.71l12.4,5a2,2,0,0,1-.75,3.85Z"/>
    <path style="fill:#FFFFFF;" d="M94,76.5v-56a4,4,0,0,0-4-4H6a4,4,0,0,0-4,4v56a4,4,0,0,0,4,4H90A4,4,0,0,0,94,76.5Zm-5-54a2,2,0,1,1-2-2A2,2,0,0,1,89,22.5Zm-6,0a2,2,0,1,1-2-2A2,2,0,0,1,83,22.5Zm-6,0a2,2,0,1,1-2-2A2,2,0,0,1,77,22.5Zm13,54H6v-48H90Z"/>
</svg>