<svg xmlns="http://www.w3.org/2000/svg" data-name="Layer 1" viewBox="0 0 100 100" x="0px" y="0px">
    <title>60</title>
    <g data-name="Group">
        <path style="fill:#FFFFFF;" data-name="Compound Path" d="M82.5,42.3A32.5,32.5,0,1,0,33.9,70.4L27.5,81.1a6,6,0,0,0,5.2,9.1H67.3a6,6,0,0,0,5.2-9.1L66.1,70.4A32.5,32.5,0,0,0,82.5,42.3ZM69,83.2a2,2,0,0,1-1.7,3H32.7a2,2,0,0,1-1.7-3l6.6-11a32.4,32.4,0,0,0,25,0ZM50,70.7A28.5,28.5,0,1,1,78.5,42.3,28.5,28.5,0,0,1,50,70.7Z"/>
        <path style="fill:#FFFFFF;" data-name="Compound Path" d="M50,24.2A18.1,18.1,0,1,0,68.1,42.3,18.1,18.1,0,0,0,50,24.2Zm0,32.2A14.1,14.1,0,1,1,64.1,42.3,14.1,14.1,0,0,1,50,56.3Z"/>
    </g>
</svg>